/* XPM */
static char *yoda[] = {
/* columns rows colors chars-per-pixel */
"99 77 256 2 ",
"   c #1E1516",
".  c #24191B",
"X  c #27201A",
"o  c #2C3528",
"O  c #3D372C",
"+  c #2D3730",
"@  c #333D34",
"#  c #2D2C26",
"$  c #291D20",
"%  c #463A36",
"&  c #5C3F2D",
"*  c #364037",
"=  c #3D473A",
"-  c #36402A",
";  c #414938",
":  c #52463E",
">  c #4B563B",
",  c #494F33",
"<  c #684A38",
"1  c #7A563C",
"2  c #75533C",
"3  c #724C31",
"4  c #596D3E",
"5  c #434E41",
"6  c #4A5746",
"7  c #555E47",
"8  c #5A4A47",
"9  c #685646",
"0  c #6B5754",
"q  c #725C5A",
"w  c #725B54",
"e  c #705549",
"r  c #5C6B44",
"t  c #54634C",
"y  c #59674A",
"u  c #5C6B4C",
"i  c #586544",
"p  c #5F794D",
"a  c #566552",
"s  c #5D6B5A",
"d  c #5B6B53",
"f  c #4F6048",
"g  c #626A49",
"h  c #63744C",
"j  c #647B4D",
"k  c #667849",
"l  c #616F5B",
"z  c #78615C",
"x  c #647451",
"c  c #6B7D53",
"v  c #667757",
"b  c #777854",
"n  c #7D6563",
"m  c #7F6864",
"M  c #6B796A",
"N  c #677769",
"B  c #815D3F",
"V  c #825E43",
"C  c #886345",
"Z  c #936F52",
"A  c #A57C57",
"S  c #806664",
"D  c #816866",
"F  c #856C6A",
"G  c #896E6B",
"H  c #8A726E",
"J  c #847269",
"K  c #997967",
"L  c #8E7571",
"P  c #907672",
"I  c #937976",
"U  c #957D79",
"Y  c #9B7F7D",
"T  c #6C844A",
"R  c #738A4C",
"E  c #6D8253",
"W  c #6B8553",
"Q  c #728355",
"!  c #758A55",
"~  c #7A8C55",
"^  c #748558",
"/  c #768958",
"(  c #7A8D5A",
")  c #7D815E",
"_  c #7C9254",
"`  c #7E925B",
"'  c #7A9559",
"]  c #76924E",
"[  c #7D8A7D",
"{  c #718074",
"}  c #78876E",
"|  c #829955",
" . c #82955B",
".. c #859B5C",
"X. c #899D5D",
"o. c #839457",
"O. c #8A8E58",
"+. c #8CA35E",
"@. c #88A158",
"#. c #91A65F",
"$. c #9DA75F",
"%. c #98B15F",
"&. c #858765",
"*. c #879B61",
"=. c #899D62",
"-. c #86976A",
";. c #9A827D",
":. c #97877A",
">. c #989A76",
",. c #898C74",
"<. c #A5967D",
"1. c #A68778",
"2. c #8CA363",
"3. c #8EA868",
"4. c #92A663",
"5. c #94AC65",
"6. c #98AE66",
"7. c #95AC69",
"8. c #99AE6A",
"9. c #94A46A",
"0. c #9AB364",
"q. c #9DB46B",
"w. c #9BB467",
"e. c #98AA77",
"r. c #9EB470",
"t. c #A0B966",
"y. c #A0B76C",
"u. c #A2BA6D",
"i. c #A8B66B",
"p. c #A1B673",
"a. c #A5BC72",
"s. c #A8BE74",
"d. c #A6B97B",
"f. c #B1BC76",
"g. c #A7AA6B",
"h. c #A9C06F",
"j. c #ABC175",
"k. c #ADC37A",
"l. c #AFC97B",
"z. c #B2C675",
"x. c #B4CB75",
"c. c #B1C67C",
"v. c #B4C97D",
"b. c #BCCA7E",
"n. c #B8D077",
"m. c #788A85",
"M. c #9D8581",
"N. c #9F9980",
"B. c #A38A85",
"V. c #A68E89",
"C. c #A98E8A",
"Z. c #A18783",
"A. c #AC938D",
"S. c #A99687",
"D. c #B0968E",
"F. c #B49989",
"G. c #AE9691",
"H. c #B19791",
"J. c #B49B94",
"K. c #B99E96",
"L. c #BA9F98",
"P. c #B59E9A",
"I. c #9DA59E",
"U. c #ACA486",
"Y. c #A7B885",
"T. c #BABC86",
"R. c #BAA197",
"E. c #BDA39A",
"W. c #B9A599",
"Q. c #ACB995",
"!. c #B3B194",
"~. c #9EA5A1",
"^. c #BDA9A5",
"/. c #ACB3AD",
"(. c #B0B3B0",
"). c #C1A79C",
"_. c #C2A89E",
"`. c #C5ABA2",
"'. c #C9ADA4",
"]. c #CEB3A9",
"[. c #C8B3A9",
"{. c #D2B7AD",
"}. c #C6B8B5",
"|. c #AEC382",
" X c #AEC28A",
".X c #B1C583",
"XX c #B5CA83",
"oX c #BACE84",
"OX c #B2C68B",
"+X c #B6CC8B",
"@X c #B9CF8C",
"#X c #BDD286",
"$X c #BDD28B",
"%X c #BACC95",
"&X c #BCD293",
"*X c #BED59C",
"=X c #BCC6A9",
"-X c #BDC3B2",
";X c #CAC888",
":X c #C4D386",
">X c #C8D78A",
",X c #CBD98E",
"<X c #C4D68C",
"1X c #C8C793",
"2X c #C1D49D",
"3X c #CAD893",
"4X c #D0DC93",
"5X c #D2D596",
"6X c #D2D08E",
"7X c #DBE59C",
"8X c #C4D3A6",
"9X c #D4D9A6",
"0X c #CBD4B8",
"qX c #D3DDB9",
"wX c #C8CAB2",
"eX c #DBE7AD",
"rX c #DBE5A4",
"tX c #D9E4B8",
"yX c #E1E9AC",
"uX c #E8EEAE",
"iX c #E6EDBA",
"pX c #A9BDC2",
"aX c #B4C4C6",
"sX c #CCCCCC",
"dX c #C8C7C6",
"fX c #D5C8C5",
"gX c #CED4C4",
"hX c #D4D7C9",
"jX c #D5D5D5",
"kX c #DCDCDC",
"lX c #DADAD4",
"zX c #CFCFD0",
"xX c #E1DCDA",
"cX c #DAE3C7",
"vX c #DEE1D6",
"bX c #E1E8CE",
"nX c #EDF2C9",
"mX c #F0F4C6",
"MX c #E4E1DE",
"NX c #E5EAD8",
"BX c #F3F6D2",
"VX c #F6F8DB",
"CX c #EDF1D9",
"ZX c #E4E4E4",
"AX c #ECECEC",
"SX c #E8E8E6",
"DX c #EEF1E5",
"FX c #F2F4ED",
"GX c #FCFCEB",
"HX c #F9FAE5",
"JX c #F4F4F4",
"KX c #F7F9F3",
"LX c #FCFDF4",
"PX c #FFFFFF",
"IX c #F7F7F9",
"UX c #EDF1F4",
/* pixels */
"PXPXPXPXPXPXPXPXPXPXPXPXPXPXPXPXPXPXPXPXPXPXPXPXPXPXPXPXPXPXPXPXPXPXPXPXPXPXPXPXPXPXPXPXPXPXPXLXLXLXPXLXPXPXPXPXPXPXPXPXPXPXPXPXPXPXPXPXPXPXPXPXPXPXPXPXPXPXPXPXPXPXPXPXPXPXPXPXPXPXPXPXPXPXPXPXPXPXPX",
"PXPXPXPXPXPXPXPXPXPXPXPXPXPXPXPXPXPXPXPXPXPXPXPXPXPXPXPXPXPXPXPXPXPXPXPXPXPXPXPXPXPXPXPXHXBXnXyXeXeXeXeXiXmXHXLXPXPXPXPXPXPXPXPXPXPXPXPXPXPXPXPXPXPXPXPXPXPXPXPXPXPXPXPXPXPXPXPXPXPXPXPXPXPXPXPXPXPXPX",
"PXPXPXPXPXPXPXPXPXPXPXPXPXPXPXPXPXPXPXPXPXPXPXPXPXPXPXPXPXPXPXPXPXPXPXPXPXPXPXPXPXPXVXiX4X3X*X*X*X8X*X*X*X*X*XeXnXLXPXPXPXPXPXPXPXPXPXPXPXPXPXPXPXPXPXPXPXPXPXPXPXPXPXPXPXPXPXPXPXPXPXPXPXPXPXPXPXPXPX",
"PXPXPXPXPXPXPXPXPXPXPXPXPXPXPXPXPXPXPXPXPXPXPXPXPXPXPXPXPXPXPXPXPXPXPXPXPXPXPXPXHXyX<X+X*X*X*X*X*X*X*X8X*X*X&X&X<XrXBXPXPXPXPXPXPXPXPXPXPXPXPXPXPXPXPXPXPXPXPXPXPXPXPXPXPXPXPXPXPXPXPXPXPXPXPXPXPXPXPX",
"PXPXPXPXPXPXPXPXPXPXPXPXPXPXPXPXPXPXPXPXPXPXPXPXPXPXPXPXPXPXPXPXPXPXPXPXPXPXPXiX<X+X+X&X@X+X X%X&X+X&X XOX&X*X&X%X@X$XyXGXPXPXPXPXPXPXPXPXPXPXPXPXPXPXPXPXPXPXPXPXPXPXPXPXPXPXPXPXPXPXPXPXPXPXPXPXPXPX",
"PXPXPXPXPXPXPXPXPXPXPXPXPXPXPXPXPXPXPXPXPXPXPXPXPXPXPXPXPXPXPXPXPXPXPXPXPXLXrXb.XX@X+X+Xd.Y.|.@X+X X*X.X|.Y.+X&X@X@X+XXX3XHXPXPXPXPXPXPXPXPXPXPXPXPXPXPXPXPXPXPXPXPXPXPXPXPXPXPXPXPXPXPXPXPXPXPXPXPXPX",
"PXPXPXPXPXPXPXPXPXPXPXPXPXPXPXPXPXPXPXPXPXPXPXPXPXPXPXPXPXPXPXPXPXPXPXPXGX<Xl..XXXXXXX+X&X$X&X&XOX|.&X&X&X@X+X+X@X+XXX+X|.#XBXPXPXPXPXPXPXPXPXPXPXPXPXPXPXPXPXPXPXPXPXPXPXPXPXPXPXPXPXPXPXPXPXPXPXPXPX",
"PXPXPXPXPXPXPXPXPXPXPXPXPXPXPXPXPXPXPXPXPXPXPXPXPXPXPXPXPXPXPXPXPXPXPXHX#Xj.XXXXXX.X.X|.k.|.k.+X.X|.+X|.|.|..XXXXXXXXXXXXXl.XXnXPXPXPXPXPXPXPXPXPXPXPXPXPXPXPXPXPXPXPXPXPXPXPXPXPXPXPXPXPXPXPXPXPXPXPX",
"PXPXGXiXrX7X7XeXiXBXGXPXPXPXPXPXPXPXPXPXPXPXPXPXPXPXPXPXPXPXPXPXPXPXHXb.a.c.z.k.p.r.p.d.d.k..XXX.Xd.@X.Xk.d.d.p.p.d.k..Xc.c.j.c.CXPXPXPXPXPXPXPXPXPXPXPXPXPXPXPXPXPXPXPXPXPXPXPXGXBXiXyX7X7XrXiXLXPXPX",
"PXHXx.%.%.4.7.u.z.n.>XyXBXLXPXPXPXPXPXPXPXPXPXPXPXPXPXPXPXPXPXPXPXHXb.u.j.j.j.a.k.l..XXXv.XXXXXXl.p.XX.X.XXXXXXXc.k.a.k.k.k.z.s.z.VXPXPXPXPXPXPXPXPXPXPXPXPXPXPXPXPXPXPXPXGXBXyX>Xx.z.u.6.5.0.0.x.HXPX",
"PXKXNXcX*X8._ Q *.s.s.u.x.,XyXmXVXGXGXLXLXLXGXGXHXHXGXLXLXPXPXPXLX:Xy.s.s.s.j.k.k.z.k.k.c.c.c.v.k.p.c.c.XXl.c.c.l.c.k.k.j.j.s.s.a.c.GXPXPXPXLXLXGXHXHXHXGXLXLXLXLXGXVXmXyX>Xz.a.a.a.2.( | p.2XtXNXKXPX",
"PXPXPXPXPXKX9X6.c c 6.j.s.u.u.z.b.:X4X4X4X4X>X:X>X>X4X7XuXmXVXLX3X%.a.a.a.a.s.j.a.a.a.p.p.a.a.s.k.p.l.s.a.p.a.a.s.s.j.j.j.s.s.a.a.t.@XGXBXmXuX7X4X>X:X:X>X4X4X4X,X:Xb.z.u.t.s.s.6.( ( t.qXKXPXPXPXPXPX",
"PXPXPXPXPXPXPXcXa.` g ` q.j.h.s.a.u.a.s.h.u.u.r.u.u.u.a.z.b.7X,X0.y.u.u.u.u.6.6.6.q.q.y.a.a.a.s.a.p.j.s.a.a.i.y.q.8.q.q.y.a.a.a.u.a.0.:X7Xb.z.s.a.u.u.u.i.a.u.a.h.u.a.a.j.h.y.*.Q =.a.cXPXPXPXPXPXPXPX",
"PXPXPXPXPXPXPXPX2Xa.( x x ( 4.w.q.q.w.6.q.y.a.j.z.h.s.u.a.t.z.u.r.u.y.q.5.7.q.y.u.a.s.a.s.a.s.s.a.u.s.s.s.s.s.s.s.a.u.y.8.8.q.t.u.y.q.y.h.t.u.a.s.h.z.h.a.y.q.8.q.y.q.q.4...^ Q X.u.2XPXPXLXPXPXPXPXPX",
"PXPXPXPXPXPXPXPXbXt.y.Q c x x x x u y y y u x E  .8.h.z.a.a.u.y.u.q.0.6.u.u.u.u.u.u.y.a.t.u.a.u.a.u.a.a.u.a.u.a.u.u.u.u.u.u.6.8.0.y.u.y.a.i.a.h.s.7.` Q x x x v x c c Q Q ^ (  .a.u.NXPXPXPXPXPXPXPXPX",
"PXPXPXPXPXPXPXPXLX.Xs.=.^ ^ c v v x x x u y y y y y j X.q.u.y.y.y.q.y.u.u.q.y.y.u.u.u.y.i.u.y.u.i.u.y.t.u.y.i.t.y.y.q.u.q.q.u.u.q.q.w.u.u.u.q.*.j y y y x x x c Q Q ^ ( ( ` ` 9.u.XXPXPXPXPXPXPXPXPXPX",
"PXPXPXPXPXPXPXPXPXqXt.a.( / ^ c c c c v x g d u u u y 6 ` a.y.y.u.u.u.u.u.p.a.a.h.p.a.p.a.p.a.y.u.u.y.u.p.p.a.p.p.p.p.p.y.y.y.y.y.y.u.y.y.h.' f y u x v v c c ^ ^ / ( (  . .X.s.t.cXPXPXPXPXPXPXPXPXPX",
"PXPXPXPXPXPXPXPXPXKXj.h.7.~ ( ^ ^ ^ c c v x x u y y t h u.u.y.y.u.p.a.a.s.s.s.s.j.h.k.h.j.h.a.q.q.u.w.q.a.a.h.h.h.j.j.a.h.p.a.y.y.y.y.y.y.y.y.j u x x c c ^ / / ( (  . . ...w.a.k.KXPXPXPXPXPXPXPXPXPX",
"PXPXPXPXPXPXPXPXPXPXqXt.s.X.( ` ( ^ ^ c c c v x u y y 5.u.u.p.a.a.a.s.j.k.j.k.k.k.k.k.k.j.a.h.8.6.u.5.q.j.a.j.j.j.k.k.j.j.j.j.h.a.p.y.y.y.y.u.w.x x c E ^ ^ / (  . ...X.X.4.j.t.qXPXPXPXPXPXPXPXPXPXPX",
"PXPXPXPXPXPXPXPXPXPXKXk.u.y... . .( ( ^ ^ ^ c x x y ..h.u.u.a.h.j.j.j.k.c.c.l.l.l.k.j.d.j.h.p.5.q.u.5.0.a.a.a.j.k.j.k.k.l.j.j.j.j.a.h.a.y.y.t.u.X.x c Q ^ (  . . .*.X.X.+.a.i.|.LXPXPXPXPXPXPXPXPXPXPX",
"PXPXPXPXPXPXPXPXPXPXPXcXt.j.6.X. . . .( / ^ c c h / u.u.a.a.a.j.k.c.v.v.n.l.l.l.k.k.j.j.a.a.0.5.q.y.0.5.q.a.j.j.j.k.l.l..Xl.l.v.l.l.j.a.a.p.u.y.u.` c ! ~ ( ....*.X.#.#.w.s.t.bXPXPXPXPXPXPXPXPXPXPXPX",
"PXPXPXPXPXPXPXPXPXPXPXPX&Xt.s.#.X.*... .( ( Q c E q.a.p.a.j.j.p.8.3.2.3.3.3.q.q.r.r.q.q.q.5.6...3.u.4.5.5.w.y.u.a.h.a.a.p.p.r.r.q.p.a.k.j.a.a.y.u.6.Q / ( o...X.+.4.#.6.j.w.2XPXPXPXPXPXPXPXPXPXPXPXPX",
"PXPXPXPXPXPXPXPXPXPXPXPXFXk.u.h.4.=.X. . .~ ~ c +.u.y.a.a.8.' W j W W ! ' ' ' ' ..2.3.5.6.%.X.h 6.h.#.E 5.w.6.5.3.3.2.....' ' ' ! ! ! ' 3.a.s.u.u.u.2.~ o.o.X.+.#.#.$.a.u.l.KXPXPXPXPXPXPXPXPXPXPXPXPX",
"PXPXPXPXPXPXPXPXPXPXPXPXPXNXu.s.a.$.X...o.~ ~ ~ y.y.u.8.' j p j j W W T T W ' ......@.2. .! h c u.y.y.j j ' +.2.+.2.@.*...] T W W W W W W W 2.a.u.y.q._ o...X.+.+.$.a.a.a.CXPXPXPXPXPXPXPXPXPXPXPXPXPX",
"PXPXPXPXPXPXPXPXPXPXPXPXPXPXbXw.w.w.#.X...o.~ +.u.u.2.j p j h h j r > l { l f u c c E c c E c ..u.t.a. .k k c k j j c r > l { s 7 r k h j p p ' y.u.u.X.o.X.X.+.#.q.q.u.bXPXPXPXPXPXPXPXPXPXPXPXPXPXPX",
"PXPXPXPXPXPXPXPXPXPXPXPXPXPXPXbXq.#.5.+.X.| _ 6.a.+.p W c c c E r l aXpXm.N s 6 u ( / ~ ~ _ ~ 5.u.y.u.5./ ! Q Q E ! p N aXaXm.{ s 6 i h h h j p W w.a.6.| | @.+.6.+.q.bXPXPXPXPXPXPXPXPXPXPXPXPXPXPXPX",
"PXPXPXPXPXPXPXPXPXPXPXPXPXPXPXPXDXd.| | | | o.u.5.j E Q / / ( E { UXaXf t 5 f } l v ..*.....X.y.y.y.u.u...( ` `  .c [ UXdXa f 6 t M a k Q E c c j _ u.t.o.o.| | | Y.DXPXPXPXPXPXPXPXPXPXPXPXPXPXPXPXPX",
"PXPXPXPXPXPXPXPXPXPXPXPXPXPXPXPXPXPX0X9.R T _ a.2.~  .` `  .o.^ SXKXs a = + = Y.-.d =.2.2.2.8.y.7.5.7.q.6.*.=.X...-.UXFXa a = + 6 Y.} d _ ~ ~ ~ ~ E 6.u.] T R e.0XPXPXPXPXPXPXPXPXPXPXPXPXPXPXPXPXPXPX",
"PXPXPXPXPXPXPXPXPXPXPXPXPXPXPXPXPXPXPXIXcX=Xd.q.6...*.X.=.2.| Q.PXaXa 6 @ * @ 5 5 l ..6.7.6.q.5.3.3.3.3.q.7.3.3...-XPX/.f 6 + * = s a s ` ....o. . .6.u.d.=XlXIXPXPXPXPXPXPXPXPXPXPXPXPXPXPXPXPXPXPXPX",
"PXPXPXPXPXPXPXPXPXPXPXPXPXPXPXPXPXPXPXPXPXPX8X0.r.4.4.3.4.7.+.hXPX/.a 5 @ @ * @ * s *.u.y.y.8.3...3.2.*.7.q.6.q.7.vXPXI.a = @ * @ + = s  .4.=.2.=.2.u.0.8XPXPXPXPXPXPXPXPXPXPXPXPXPXPXPXPXPXPXPXPXPXPX",
"PXPXPXPXPXPXPXPXPXPXPXPXPXPXPXPXPXPXPXPXPXPX%X0.u.q.6.q.q.q.6.bXPXdXa f + * * + 5 l e.u.y.u.4.j ..8.3.W | h.y.y.y.DXPX/.a 6 + * * @ 5 l 9.8.5.7.5.6.u.0.OXPXPXPXPXPXPXPXPXPXPXPXPXPXPXPXPXPXPXPXPXPXPX",
"PXPXPXPXPXPXPXPXPXPXPXPXPXPXPXPXPXPXPXPXIXPX8X6.u.y.y.y.y.u.0.qXPXJXN d 6 * @ 5 f [ &Xw.y.u.o.i h T j r W u.y.y.q.CXPXZXa s = @ @ ; t [ |.q.u.q.r.y.u.w.|.PXPXPXPXPXPXPXPXPXPXPXPXPXPXPXPXPXPXPXPXPXPX",
"PXPXPXPXPXPXPXPXPXPXPXPXPXPXPXPXPXPXPXPXPXPX8X%.u.y.y.u.q.q.4.%XPXPXkXs t t f 6 M kXa.q.u.5.8...j h j ( 8.7.y.y.0.qXPXPX(.f a f f 6 M 0X7.7.q.y.p.y.y.q.|.PXPXPXPXPXPXPXPXPXPXPXPXPXPXPXPXPXPXPXPXPXPX",
"PXPXPXPXPXPXPXPXPXPXPXPXPXPXPXPXPXPXPXPXPXPXgX0.u.y.y.p.q.8.3...gXPXPXAXI.[ [ /.IX*X0.u.q.q.l.k.a.p.p.k.l.p.8.y.q.u.DXPXPXzXm.N M ~.kXY.2.8.r.p.h.a.y.w.Y.PXPXPXPXPXPXPXPXPXPXPXPXPXPXPXPXPXPXPXPXPXPX",
"PXPXPXPXPXPXPXPXPXPXPXPXPXPXPXPXPXPXPXPXPXPXSX7.u.y.u.p.s.k.j.r.2.=XJXPXPXPXPXPX8Xt.y.y.q.k..X#X#X#X$X#XXXl.p.y.y.t.|.FXPXPXPXPXPX0X7.q.k.k.k.k.h.a.a.0.%XPXLXPXPXPXPXPXPXPXPXPXPXPXPXPXPXPXPXPXPXPXPX",
"PXPXPXPXPXPXPXPXPXPXPXPXPXPXPXPXPXPXPXPXPXPXPXY.0.u.u.a.a.k.c.c.c.0.e.hXDXCXqXY.t.y.y.y.p..XXX#X<X,X,X$XoXXXk.r.u.y.t.p.qXCXFXNXY.5.k.v..Xk.k.z.j.a.y.%.gXPXPXPXPXPXPXPXPXPXPXPXPXPXPXPXPXPXPXPXPXPXPX",
"PXPXPXPXPXPXPXPXPXPXPXPXPXPXPXPXPXPXPXPXPXPXPXhX+.u.y.a.a.k.k.c.v.XXz.7.q.y.%.q.u.u.t.u.l.l..X#X<X,X<X<X#Xl.l.j.y.y.y.u.%.y.p.6.a.l.XXXXXXk.k.k.d.p.y.e.UXPXPXPXPXPXPXPXPXPXPXPXPXPXPXPXPXPXPXPXPXPXPX",
"PXPXPXPXPXPXPXPXPXPXPXPXPXPXPXPXPXPXPXPXPXPXPXPXQ.#.u.y.p.j.k.l.XXc.XXl.j.a.a.y.y.y.y.5.E l.#XXX$X#XoX#X#XXXq.` u.y.u.y.u.p.h.k.k.j.l.c.k.k.j.h.p.u.@.wXPXPXPXPXPXPXPXPXPXPXPXPXPXPXPXPXPXPXPXPXPXPXPX",
"PXPXPXPXPXPXPXPXPXPXPXPXPXPXPXPXPXPXPXPXPXPXPXPXIXe.#.a.u.u.s.j.c.c.l.k.k.j.a.y.y.u.q.h.r o E 8.l.k.a.j.7.r - +.u.u.y.y.y.a.a.j.k.k.k.k.j.j.h.p.h...Q.PXPXPXPXPXPXPXPXPXPXPXPXPXPXPXPXPXPXPXPXPXPXPXPX",
"PXPXPXPXPXPXPXPXPXPXPXPXPXPXPXPXPXPXPXPXPXPXPXPXPXKXe.@.u.a.p.a.j.j.k.k.j.j.a.u.y.y.y.q.x.~ o # = f 6 @ X = q.h.y.y.y.y.y.u.a.d.d.j.j.h.p.p.u.y.@.Y.KXPXPXPXPXPXPXPXPXPXPXPXPXPXPXPXPXPXPXPXPXPXPXPXPX",
"PXPXPXPXPXPXPXPXPXPXPXPXPXPXPXPXPXPXPXPXPXPXPXPXPXPXKXQ. .6.u.a.p.a.h.j.j.a.p.u.y.y.y.u.w.x.x.] > = = i 2.n.h.q.y.y.u.w.u.y.u.u.a.y.y.y.h.y.3.| %XKXPXPXPXPXPXPXPXPXPXPXPXPXPXPXPXPXPXPXPXPXPXPXPXPXPX",
"PXPXPXPXPXPXPXPXPXPXPXPXPXPXPXPXPXPXPXPXPXPXPXPXPXPXPXPXgX3...7.u.a.a.p.a.u.y.y.y.y.u.u.u.w.u.x.n.h.h.x.z.q.q.y.y.t.y.u.u.y.y.y.y.y.a.y.6.' e.hXPXPXPXPXPXPXPXPXPXPXPXPXPXPXPXPXPXPXPXPXPXPXPXPXPXPXPX",
"PXPXPXPXPXPXPXPXPXPXPXPXPXPXPXPXPXPXPXPXPXPXPXPXPXPXPXPXPXFX=X3.' 2.6.a.y.u.y.y.y.y.y.y.q.u.y.q.t.u.u.t.q.u.y.y.y.y.y.u.t.u.u.u.y.7.*.*.e.0XKXPXIXPXPXPXPXPXPXPXPXPXPXPXPXPXPXPXPXPXPXPXPXPXPXPXPXPXPX",
"PXPXPXPXPXPXPXPXPXPXPXPXPXPXPXPXPXPXPXPXPXPXPXPXPXPXPXPXPXPXPXKX0XY.2.| 2.5.q.p.y.y.q.6.u.u.y.y.u.y.q.u.u.q.y.r.6.u.y.w.y.5.3...*.9.Q.cXLXPXPXPXPXPXPXPXPXPXPXPXPXPXPXPXPXPXPXPXPXPXPXPXPXPXPXPXPXPXPX",
"PXPXPXPXPXPXPXPXPXPXPXPXPXPXPXPXPXPXPXPXPXPXPXPXPXPXPXPXPXPXPXPXPXPXSX0XY.e.=.*.2.3.3.=.3.p.u.y.y.y.u.y.y.u.q.2.2.3.2.2.*.3.Y.-XcXJXPXPXPXPXPXPXPXPXPXPXPXPXPXPXPXPXPXPXPXPXPXPXPXPXPXPXPXPXPXPXPXPXPX",
"PXPXPXPXPXPXPXPXPXPXPXPXPXPXPXPXPXPXPXPXPXPXPXPXPXPXPXPXPXPXPXPXPXPXPXPXPXJXNXcXQ.-.>.9.2.2.8.y.t.q.q.q.y.7.2.2.>.>.>.<.vXKXPXPXPXPXPXPXPXPXPXPXPXPXPXPXPXPXPXPXPXPXPXPXPXPXPXPXPXPXPXPXPXPXPXPXPXPXPX",
"PXPXPXPXPXPXPXPXPXPXPXPXPXPXPXPXPXPXPXPXPXPXPXPXPXPXPXPXPXPXPXPXPXPXPXPXPXPXPXIXP.Z.V.S.N.>.-.3.8.8.7.7.*.-.>.N.V.V.Z.;.dXPXPXIXPXPXPXPXPXPXPXPXPXPXPXPXPXPXPXPXPXPXPXPXPXPXPXPXPXPXPXPXPXPXPXPXPXPXPX",
"PXPXPXPXPXPXPXPXPXPXPXPXPXPXPXPXPXPXPXPXPXPXPXPXPXPXPXPXPXPXPXPXPXPXPXPXPXLXPXfXK.J.S.B.V.V.B.O ; > > - O M.V.M.M.B.S.K.K.MXPXPXPXPXPXPXPXPXPXPXPXPXPXPXPXPXPXPXPXPXPXPXPXPXPXPXPXPXPXPXPXPXPXPXPXPXPX",
"PXPXPXPXPXPXPXPXPXPXPXPXPXPXPXPXPXPXPXPXPXPXPXPXPXPXPXPXPXPXPXPXPXPXPXPXPXPXlXJ.E.).).).K.H.K.9   $ $   0 K.D.F.R.E.).K.J.K.AXPXPXPXPXPXPXPXPXPXPXPXPXPXPXPXPXPXPXPXPXPXPXPXPXPXPXPXPXPXPXPXPXPXPXPXPX",
"PXPXPXPXPXPXPXPXPXPXPXPXPXPXPXPXPXPXPXPXPXPXPXPXPXPXPXPXPXPXPXPXPXPXPXPXPXMXA.D.A.B.C.K.).).'.D.: g 7 9 e.<.R.).K.A.B.B.A.C.L.JXPXPXPXPXPXPXPXPXPXPXPXPXPXPXPXPXPXPXPXPXPXPXPXPXPXPXPXPXPXPXPXPXPXPXPX",
"PXPXPXPXPXPXPXPXPXPXPXPXPXPXPXPXPXPXPXPXPXPXPXPXPXPXPXPXPXPXPXPXPXPXPXPXFXA.C.D.A.D.A.C.A.J.E.!.a.w.0.z.j.] &.A.V.C.A.A.C.C.Z.[.PXPXPXPXPXPXPXPXPXPXPXPXPXPXPXPXPXPXPXPXPXPXPXPXPXPXPXPXPXPXPXPXPXPXPX",
"PXPXPXPXPXPXPXPXPXPXPXPXPXPXPXPXPXPXPXPXPXPXPXPXPXPXPXPXPXPXPXPXPXPXPXPX[.Y B.V.C.A.D.H.D.C.C.5.%.#.h.u.0.X.~ S.D.A.C.C.V.B.Z.Y MXPXPXPXPXPXPXPXPXPXPXPXPXPXPXPXPXPXPXPXPXPXPXPXPXPXPXPXPXPXPXPXPXPXPX",
"PXPXPXPXPXPXPXPXPXPXPXPXPXPXPXPXPXPXPXPXPXPXPXPXPXPXPXPXPXPXPXPXPXPXPXAXM.Y ;.M.Z.B.B.C.C.U.d.1X2.y.a.w.u.j.u.<.C.B.B.Z.M.;.M.P }.PXPXPXPXPXPXPXPXPXPXPXPXPXPXPXPXPXPXPXPXPXPXPXPXPXPXPXPXPXPXPXPXPXPX",
"PXPXPXPXPXPXPXPXPXPXPXPXPXPXPXPXPXPXPXPXPXPXPXPXPXPXPXPXPXPXPXPXPXPXPXMXL I U Y Y Z.Z.Z.N.h.j.;Xd.;Xf.6Xi.s.@.&.B.M.;.;.U U U G }.PXPXPXPXPXPXPXPXPXPXPXPXPXPXPXPXPXPXPXPXPXPXPXPXPXPXPXPXPXPXPXPXPXPX",
"PXPXPXPXPXPXPXPXPXPXPXPXPXPXPXPXPXPXPXPXPXPXPXPXPXPXPXPXPXPXPXPXPXPXPXSXH L L I I Y ;.Y <.t.X.~ $.O.O.g.| _ R &.M.U U U I P P D zXPXPXPXPXPXPXPXPXPXPXPXPXPXPXPXPXPXPXPXPXPXPXPXPXPXPXPXPXPXPXPXPXPXPX",
"PXPXPXPXPXPXPXPXPXPXPXPXPXPXPXPXPXPXPXPXPXPXPXPXPXPXPXPXPXPXPXPXPXPXPXPXV.S H H L P I U g.i.6.9.=.X.&.k =.~ 4 : Y I P L H H S M.IXPXPXPXPXPXPXPXPXPXPXPXPXPXPXPXPXPXPXPXPXPXPXPXPXPXPXPXPXPXPXPXPXPXPX",
"PXPXPXPXPXPXPXPXPXPXPXPXPXPXPXPXPXPXPXPXPXPXPXPXPXPXPXPXPXPXPXPXPXPXPXPXMXS S F F H H L d.a.2.f.6Xf.6XO.;Xg . % I H H F F S D MXPXPXPXPXPXPXPXPXPXPXPXPXPXPXPXPXPXPXPXPXPXPXPXPXPXPXPXPXPXPXPXPXPXPXPX",
"PXPXPXPXPXPXPXPXPXPXPXPXPXPXPXPXPXPXPXPXPXPXPXPXPXPXPXPXPXPXPXPXPXPXPXPXPXdXq n m D F F &.6.X.O.O.9 b 2 C O $ : L F D D n n jXPXPXPXPXPXPXPXPXPXPXPXPXPXPXPXPXPXPXPXPXPXPXPXPXPXPXPXPXPXPXPXPXPXPXPXPX",
"PXPXPXPXPXPXPXPXPXPXPXPXPXPXPXPXPXPXPXPXPXPXPXPXPXPXPXPXPXPXPXPXPXPXPXPXIXPXdXw q n n F 0 - k 3 2 2 3 2 G % # 8 F n n z 0 }.PXIXPXPXPXPXPXPXPXPXPXPXPXPXPXPXPXPXPXPXPXPXPXPXPXPXPXPXPXPXPXPXPXPXPXPXPX",
"PXPXPXPXPXPXPXPXPXPXPXPXPXPXPXPXPXPXPXPXPXPXPXPXPXPXPXPXPXPXPXPXPXPXPXPXPXPXJXI q q n n 0   O C C 2 < < K 8 O 9 S z q n L ^.PXPXPXPXPXPXPXPXPXPXPXPXPXPXPXPXPXPXPXPXPXPXPXPXPXPXPXPXPXPXPXPXPXPXPXPXPX",
"PXPXPXPXPXPXPXPXPXPXPXPXPXPXPXPXPXPXPXPXPXPXPXPXPXPXPXPXPXPXPXPXPXPXPXPXPXPXjXY Y z 0 q q % O A 1 < < < K q ; 0 q 0 D M.Z.V.JXPXPXPXPXPXPXPXPXPXPXPXPXPXPXPXPXPXPXPXPXPXPXPXPXPXPXPXPXPXPXPXPXPXPXPXPX",
"PXPXPXPXPXPXPXPXPXPXPXPXPXPXPXPXPXPXPXPXPXPXPXPXPXPXPXPXPXPXPXPXPXPXPXPXPXPX}.Y V.B.F 0 0 % 8 Y 1 2 e 1 A F : 0 z U V.V.V.Z.MXPXPXPXPXPXPXPXPXPXPXPXPXPXPXPXPXPXPXPXPXPXPXPXPXPXPXPXPXPXPXPXPXPXPXPXPX",
"PXPXPXPXPXPXPXPXPXPXPXPXPXPXPXPXPXPXPXPXPXPXPXPXPXPXPXPXPXPXPXPXPXPXPXPXPXPX`.V.V.V.A.M.n 0 S G.Z 2 1 C K Z.n L V.G.A.V.A.B.fXPXPXPXPXPXPXPXPXPXPXPXPXPXPXPXPXPXPXPXPXPXPXPXPXPXPXPXPXPXPXPXPXPXPXPXPX",
"PXPXPXPXPXPXPXPXPXPXPXPXPXPXPXPXPXPXPXPXPXPXPXPXPXPXPXPXPXPXPXPXPXPXPXPXPXIXP.C.G.A.G.G.G.M.V.H.I 1 V C Z G.G.G.G.G.A.A.G.C.}.PXPXPXPXPXPXPXPXPXPXPXPXPXPXPXPXPXPXPXPXPXPXPXPXPXPXPXPXPXPXPXPXPXPXPXPX",
"PXPXPXPXPXPXPXPXPXPXPXPXPXPXPXPXPXPXPXPXPXPXPXPXPXPXPXPXPXPXPXPXPXPXPXPXPXAXH.H.H.D.D.D.J.J.H.J.B.V C B K J.D.H.D.J.J.J.J.A.`.PXPXPXPXPXPXPXPXPXPXPXPXPXPXPXPXPXPXPXPXPXPXPXPXPXPXPXPXPXPXPXPXPXPXPXPX",
"PXPXPXPXPXPXPXPXPXPXPXPXPXPXPXPXPXPXPXPXPXPXPXPXPXPXPXPXPXPXPXPXPXPXPXPXPXSXH.J.K.K.J.P.J.J.J.P.C.C C 1 K L.J.J.P.J.J.L.J.J.).IXPXPXPXPXPXPXPXPXPXPXPXPXPXPXPXPXPXPXPXPXPXPXPXPXPXPXPXPXPXPXPXPXPXPXPX",
"PXPXPXPXPXPXPXPXPXPXPXPXPXPXPXPXPXPXPXPXPXPXPXPXPXPXPXPXPXPXPXPXPXPXPXPXPXMXJ.E.L.L.L.L.R.E.R.E.F.C C 3 1.^.L.E.R.R.R.R.E.P.L.IXPXPXPXPXPXPXPXPXPXPXPXPXPXPXPXPXPXPXPXPXPXPXPXPXPXPXPXPXPXPXPXPXPXPXPX",
"PXPXPXPXPXPXPXPXPXPXPXPXPXPXPXPXPXPXPXPXPXPXPXPXPXPXPXPXPXPXPXPXPXPXPXPXPXAXL.).E.L.E.).E.E.E.E.F.A B < C.`.E.E.).E.).E.).).fXPXPXPXPXPXPXPXPXPXPXPXPXPXPXPXPXPXPXPXPXPXPXPXPXPXPXPXPXPXPXPXPXPXPXPXPX",
"PXPXPXPXPXPXPXPXPXPXPXPXPXPXPXPXPXPXPXPXPXPXPXPXPXPXPXPXPXPXIXIXIXIXIXJXJXIXhXR.'.`.).).).).).`.F.A < < K._._._._._.).'.`.<.MXIXJXIXIXIXIXPXPXIXPXPXPXPXPXPXPXPXPXPXPXPXPXPXPXPXPXPXPXPXPXPXPXPXPXPXPX",
"PXPXPXPXPXPXPXPXPXPXPXPXPXPXPXPXPXPXPXPXPXPXPXPXIXPXIXKXJXJXJXJXAXAXAXSXZXSXwX_ :.).].].'.`.`.`.).A < e '.`._.`.'.'.].J.) @.OXZXZXZXSXAXAXAXUXFXJXIXIXPXPXIXPXPXPXPXPXPXPXPXPXPXPXPXPXPXPXPXPXPXPXPXPX",
"PXPXPXPXPXPXPXPXPXPXPXPXPXPXPXPXPXPXPXPXPXPXIXPXKXJXJXAXAXAXZXZXZXkXkXjXjXzX9Xg.R / &.S.`.{.{.].].A & 1 {.].{.{.].U.c k @.$.g.gXjXjXkXkXZXZXSXAXAXUXUXJXKXJXPXPXPXPXPXPXPXPXPXPXPXPXPXPXPXPXPXPXPXPXPX",
"PXPXPXPXPXPXPXPXPXPXPXPXPXPXPXPXPXPXPXPXIXIXKXKXJXJXAXAXAXZXZXkXkXjXjXzXsXwX;X!.k.6._ ] E &.<.J.].1.& z {.).U.,.^ E ] $.f.Y.1XwXsXzXjXjXkXkXMXZXSXAXAXJXFXJXIXIXIXPXPXPXPXPXPXPXPXPXPXPXPXPXPXPXPXPXPX",
"PXPXPXPXPXPXPXPXPXPXPXPXPXPXPXPXPXPXPXPXPXIXIXJXJXJXAXAXAXZXZXZXkXkXjXjXzXsXdXwX;X$.|.6X@.T k c !.F.3 w (.,.h T #.g.f.i.6XfXsXsXzXjXjXkXkXZXZXSXAXAXUXFXFXIXIXIXIXPXPXPXPXPXPXPXPXPXPXPXPXPXPXPXPXPXPX",
"PXPXPXPXPXPXPXPXPXPXPXPXPXPXPXPXPXPXPXPXPXPXPXPXIXIXJXJXJXJXAXAXSXZXZXMXkXkXkXgXwXfXwXT.d.Q.-XdXdX[.1 w sXdXdX=XOX.X9XzXhXjXjXkXkXZXZXZXZXAXAXUXUXFXJXIXPXIXPXPXPXPXPXPXPXPXPXPXPXPXPXPXPXPXPXPXPXPXPX",
"PXPXPXPXPXPXPXPXPXPXPXPXPXPXPXPXPXPXPXPXPXPXPXPXPXPXIXPXLXIXJXIXJXUXJXAXAXAXAXAXSXSXMXMXSXSXZXZXZXhX3 J AXkXZXZXSXMXMXSXSXAXAXAXAXAXUXUXKXJXIXIXIXPXPXPXPXPXPXPXPXPXPXPXPXPXPXPXPXPXPXPXPXPXPXPXPXPXPX",
"PXPXPXPXPXPXPXPXPXPXPXPXPXPXPXPXPXPXPXPXPXPXPXPXPXPXPXPXPXPXPXPXPXPXPXPXPXIXIXPXIXIXIXIXIXJXJXJXIXGX<.wXPXJXJXJXIXIXIXIXIXJXPXIXPXIXPXPXPXPXPXPXPXPXPXPXPXPXPXPXPXPXPXPXPXPXPXPXPXPXPXPXPXPXPXPXPXPXPX",
"PXPXPXPXPXPXPXPXPXPXPXPXPXPXPXPXPXPXPXPXPXPXPXPXPXPXPXPXPXPXPXPXPXPXPXPXPXPXPXPXPXPXPXPXPXPXPXPXPXPXPXPXPXPXPXPXPXPXPXPXPXPXPXPXPXPXPXPXPXPXPXPXPXPXPXPXPXPXPXPXPXPXPXPXPXPXPXPXPXPXPXPXPXPXPXPXPXPXPX"
};
